<?xml version="1.0" encoding="utf-8"?>
<!-- Generator: Adobe Illustrator 25.4.1, SVG Export Plug-In . SVG Version: 6.00 Build 0)  -->
<svg version="1.1" xmlns="http://www.w3.org/2000/svg" xmlns:xlink="http://www.w3.org/1999/xlink" x="0px" y="0px"
	 viewBox="0 0 360 360" style="enable-background:new 0 0 360 360;" xml:space="preserve">
<style type="text/css">
	.st0{fill:#999999;}
	.st1{opacity:0.6;fill:none;stroke:#B3B3B3;stroke-width:2;stroke-miterlimit:10;}
</style>
<g id="Layer_5">
	<circle class="st0" cx="180" cy="180" r="174"/>
</g>
<g id="Layer_4">
</g>
<g id="Layer_1">
</g>
<g id="Layer_2">
	<polygon class="st1" points="168.1,264.4 58.3,264.4 113.2,169.3 168.1,74.3 222.9,169.3 277.8,264.4 	"/>
</g>
<g id="Layer_3">
	<g>
		<path d="M169.5,208.3c-21.9,8.8-41.1,13.2-57.6,13.2c-17.7,0-31.5-5-41.3-15c-9.8-10-14.7-24-14.7-42.1c0-28.7,9.4-53.1,28.1-73.2
			s41.4-30.2,68-30.2c15.9,0,30.6,2,44.3,6l-8.8,28.4h-6.5c0.7-3.2,1-5.9,1-7.9c0-6-3.3-10.8-9.8-14.6c-6.5-3.7-15-5.6-25.5-5.6
			c-15.8,0-29.5,7-41.4,21.1c-7.8,9.3-14.2,20.8-19.2,34.6c-5,13.8-7.4,26.8-7.4,39.1c0,14.9,3.9,26.6,11.7,35.1
			s18.5,12.8,32.1,12.8c15.3,0,31.5-3.9,48.7-11.6L169.5,208.3z"/>
	</g>
	<g>
		<path d="M153.9,291.8l31.6-150.5h-25.1l1.5-6.2h66c11,0,20.5,0.8,28.3,2.3c7.9,1.5,15.6,5.5,23.3,11.8
			c7.7,6.3,13.5,14.1,17.6,23.4c4,9.3,6,19,6,29.1c0,24-8.6,46-25.9,66.2c-17.3,20.1-40.9,30.2-70.9,30.2h-75.9l1.3-6.2H153.9z
			 M213.8,141.2l-31.6,150.5h20.7c9.6,0,17.5-0.6,23.9-1.8c6.4-1.2,12.1-4.1,17.3-8.6c5.2-4.5,10.3-13.4,15.4-26.5
			s8.8-26.6,11.1-40.3s3.5-26,3.5-36.7c0-10-2.1-18-6.4-23.8c-4.3-5.8-9-9.4-14.2-10.8s-13.2-2.1-23.9-2.1H213.8z"/>
	</g>
</g>
</svg>
